<svg xmlns="http://www.w3.org/2000/svg" viewBox="0 0 229.99 229.99"><defs><style>.cls-1{fill:none;stroke:#f9faff;stroke-width:17px;}</style></defs><g id="Calque_2" data-name="Calque 2"><g id="Calque_1-2" data-name="Calque 1"><path class="cls-1" d="M115,15A100.11,100.11,0,0,1,215,115,98.89,98.89,0,0,1,203.7,161.2a101.14,101.14,0,0,1-30.14,34.86,100,100,0,0,1-117.12,0A101.06,101.06,0,0,1,26.29,161.2,98.89,98.89,0,0,1,15,115,100.11,100.11,0,0,1,115,15"/><path class="cls-1" d="M122.27,145.08a45.14,45.14,0,0,1,45.08,45.09v10a100.12,100.12,0,0,1-104.71,0v-10a45.14,45.14,0,0,1,45.08-45.09h14.55"/><path class="cls-1" d="M115,73.31A18.82,18.82,0,1,1,96.18,92.12,18.83,18.83,0,0,1,115,73.31"/></g></g></svg>